<?xml version="1.0" encoding="iso-8859-1"?>
<!-- Generator: Adobe Illustrator 19.0.0, SVG Export Plug-In . SVG Version: 6.00 Build 0)  -->
<svg version="1.1" id="Layer_1" xmlns="http://www.w3.org/2000/svg" xmlns:xlink="http://www.w3.org/1999/xlink" x="0px" y="0px"
	 viewBox="0 0 512.001 512.001" style="enable-background:new 0 0 512.001 512.001;" xml:space="preserve">
<g>
	<path style="fill:#FDBF00;" d="M260.343,251.275c-0.148-0.148-0.724-0.724-0.871-0.871
		c-66.309-66.309-271.213,6.565-248.466,69.141c9.933,27.325,30.54,45.633,50.604,57.588c14.768,8.799,28.35,19.44,40.422,31.582
		c12.144,12.07,22.783,25.654,31.582,40.422c11.955,20.064,30.263,40.67,57.588,50.604
		C253.778,522.489,326.651,317.584,260.343,251.275z"/>
	<path style="fill:#FDBF00;" d="M218.383,56.543C204.408,93.405,206.21,178.8,243.073,192.776
		c36.863,13.975,94.824-48.762,108.8-85.623c13.975-36.863-4.578-78.074-41.44-92.049C273.571,1.126,232.359,19.68,218.383,56.543z"
		/>
</g>
<path style="fill:#EAB200;" d="M25.19,110.245c6.683,33.091,46.938,94.16,80.029,87.477s46.487-78.589,39.803-111.68
	c-6.683-33.091-38.927-54.498-72.018-47.814S18.507,77.155,25.19,110.245z"/>
<g>
	<path style="fill:#FDBF00;" d="M25.19,110.245c6.683,33.091,46.938,94.16,80.029,87.477s46.487-78.589,39.803-111.68
		c-6.683-33.091-38.927-54.498-72.018-47.814S18.507,77.155,25.19,110.245z"/>
	<path style="fill:#FDBF00;" d="M456.687,294.845c-36.863,13.975-122.258,12.173-136.233-24.689s48.761-94.824,85.623-108.8
		c36.863-13.975,78.074,4.578,92.049,41.44C512.102,239.659,493.549,280.87,456.687,294.845z"/>
	<path style="fill:#FDBF00;" d="M402.984,488.039c-33.091-6.683-94.16-46.938-87.477-80.029
		c6.683-33.091,78.589-46.487,111.68-39.803c33.091,6.684,54.498,38.927,47.814,72.018
		C468.317,473.315,436.074,494.723,402.984,488.039z"/>
</g>
<g>
	<path style="fill:#EFB000;" d="M260.343,251.275c-0.148-0.148-0.724-0.724-0.871-0.871c-3.028-3.028-6.348-5.762-9.918-8.224
		c51.447,74.631-17.646,260.256-77.365,238.547c-10.349-3.762-19.402-9.057-27.31-15.272c11.358,14.196,26.454,27.063,46.323,34.286
		C253.778,522.489,326.651,317.584,260.343,251.275z"/>
	<path style="fill:#EFB000;" d="M351.874,107.151c11.962-31.551,0.078-66.273-26.705-84.392
		c12.588,18.586,16.254,42.794,7.691,65.378c-13.975,36.863-71.938,99.599-108.8,85.623c-0.354-0.134-0.699-0.287-1.045-0.434
		c4.999,9.273,11.604,16.243,20.059,19.448C279.935,206.75,337.898,144.014,351.874,107.151z"/>
	<path style="fill:#EFB000;" d="M145.022,86.042c-3.436-17.015-13.64-30.926-27.232-39.532c3.86,6.113,6.703,13.011,8.219,20.518
		c6.683,33.091-6.713,104.996-39.803,111.68c-10.093,2.039-20.853-2.234-31.124-10.087c15.076,18.709,33.511,32.458,50.138,29.1
		C138.309,191.038,151.706,119.134,145.022,86.042z"/>
	<path style="fill:#EFB000;" d="M498.127,202.796c-5.413-14.277-14.922-25.791-26.671-33.749c3.049,4.509,5.644,9.424,7.657,14.736
		c13.975,36.861-4.578,78.074-41.44,92.049c-28.408,10.77-85.631,12.165-116.785-4.63c15.188,35.844,99.29,37.484,135.799,23.643
		C493.549,280.87,512.102,239.659,498.127,202.796z"/>
	<path style="fill:#EFB000;" d="M475.001,440.225c5.168-25.583-6.465-50.648-27.296-63.798c8.131,12.842,11.529,28.709,8.281,44.786
		c-6.683,33.091-38.927,54.498-72.018,47.814c-16.464-3.325-39.851-14.962-58.376-29.891c17.891,23.4,54.394,44.259,77.39,48.903
		C436.074,494.723,468.317,473.315,475.001,440.225z"/>
</g>
<path d="M266.172,243.777c-22.549-22.549-61.342-32.451-109.223-27.883c-41.225,3.933-84.357,18.075-115.38,37.829
	C7.921,275.15-5.999,299.64,2.377,322.68c9.2,25.307,27.565,46.303,54.587,62.403c7.064,4.21,13.941,8.926,20.438,14.018
	c4.045,3.171,9.896,2.463,13.067-1.584c3.171-4.046,2.462-9.896-1.584-13.067c-7.117-5.578-14.652-10.746-22.392-15.358
	c-23.24-13.848-38.924-31.602-46.62-52.772c-7.116-19.576,19.795-39.315,31.696-46.894c59.198-37.698,162.253-51.673,201.44-12.486
	l0.871,0.871c39.187,39.186,25.212,142.242-12.486,201.44c-7.579,11.902-27.32,38.816-46.894,31.695
	c-21.17-7.696-38.925-23.38-52.772-46.62c-8.248-13.843-18.114-26.794-29.321-38.493c-3.557-3.713-9.448-3.839-13.16-0.283
	s-3.839,9.448-0.283,13.16c10.236,10.685,19.244,22.51,26.773,35.145c16.1,27.021,37.096,45.387,62.403,54.587
	c4.376,1.591,8.803,2.378,13.253,2.378c18.978,0,38.346-14.312,55.703-41.569c19.755-31.022,33.897-74.155,37.829-115.38
	c4.568-47.884-5.334-86.674-27.883-109.223L266.172,243.777z"/>
<path d="M239.661,201.478c4.543,1.723,9.397,2.574,14.507,2.574c17.169,0,37.214-9.612,57.962-28.07
	c21.201-18.861,40.624-45.195,48.334-65.531C376.235,68.85,355.221,22.172,313.619,6.4c-37.723-14.303-80.56,1.672-99.637,37.157
	c-2.434,4.527-0.737,10.172,3.791,12.605c4.527,2.434,10.172,0.738,12.605-3.791c14.67-27.288,47.618-39.568,76.642-28.566
	c32.004,12.134,48.17,48.042,36.037,80.047c-6.741,17.779-24.142,41.177-43.301,58.221c-21.177,18.84-40.678,26.859-53.496,21.999
	c-23.471-8.898-31.576-62.678-24.172-105.38c0.879-5.065-2.516-9.882-7.58-10.761c-5.063-0.879-9.882,2.516-10.761,7.58
	C196.155,119.286,202.281,187.307,239.661,201.478z"/>
<path d="M45.537,171.692c10.319,13.386,31.115,35.841,54.437,35.844c0.001,0,0.002,0,0.004,0c2.356,0,4.701-0.233,6.971-0.691
	c39.885-8.056,54.6-85.436,47.084-122.646c-6.612-32.739-35.62-56.501-68.975-56.501c-4.676,0-9.39,0.473-14.009,1.406
	c-38.068,7.69-62.784,44.916-55.095,82.985C19.485,129.568,31.096,152.963,45.537,171.692z M74.735,47.352
	c3.409-0.689,6.882-1.038,10.323-1.038c24.529,0,45.863,17.483,50.728,41.571c6.389,31.633-7.838,95.728-32.523,100.713
	c-1.06,0.213-2.164,0.323-3.285,0.323c0,0-0.001,0-0.002,0c-25.047-0.002-59.803-50.949-65.775-80.518
	C28.545,80.396,46.728,53.008,74.735,47.352z"/>
<path d="M506.718,199.496c-11.815-31.165-42.14-52.103-75.46-52.103c-9.767,0-19.386,1.77-28.592,5.26
	c-20.335,7.708-46.668,27.133-65.531,48.334c-23.952,26.923-33.007,52.66-25.496,72.47c13.634,35.963,73.42,38.757,91.42,38.757
	c21.584,0,42.292-3.158,56.816-8.664c20.153-7.641,36.124-22.671,44.972-42.325C513.693,241.571,514.357,219.649,506.718,199.496z
	 M487.871,253.582c-6.806,15.118-19.093,26.682-34.597,32.56c-12.314,4.668-31.086,7.455-50.216,7.455
	c-38.802,0-67.854-10.497-74.013-26.741c-4.86-12.82,3.158-32.319,21.999-53.496c17.044-19.159,40.442-36.561,58.221-43.301
	c7.09-2.688,14.489-4.051,21.993-4.051c25.634,0,48.964,16.109,58.054,40.087C495.188,221.599,494.677,238.464,487.871,253.582z"/>
<path d="M428.917,359.084c-6.092-1.231-13.207-1.855-21.145-1.855c-35.422,0-94.299,13.287-101.501,48.939
	c-8.056,39.885,57.547,83.479,94.759,90.995c4.619,0.933,9.333,1.406,14.009,1.406c33.354,0,62.362-23.762,68.975-56.501
	c3.724-18.441,0.046-37.229-10.361-52.902C463.245,373.492,447.358,362.809,428.917,359.084z M465.764,438.382
	c-4.865,24.087-26.2,41.571-50.728,41.571c-3.441,0-6.914-0.349-10.323-1.038c-31.633-6.389-85.181-44.378-80.196-69.062
	c4.048-20.042,47.125-34.008,83.254-34.008c6.609,0,12.646,0.514,17.459,1.487c13.567,2.74,25.255,10.6,32.911,22.132
	C465.798,410.994,468.505,424.815,465.764,438.382z"/>
<g>
</g>
<g>
</g>
<g>
</g>
<g>
</g>
<g>
</g>
<g>
</g>
<g>
</g>
<g>
</g>
<g>
</g>
<g>
</g>
<g>
</g>
<g>
</g>
<g>
</g>
<g>
</g>
<g>
</g>
</svg>
